# xmcd
#
# Track frame offsets: 
#        150
#        14362
#        31687
#        46912
#        66325
#        87837
#        104462
#        121587
#        137250
#        156350
#        174237
#
# Disc length: 2578 seconds
#
# Revision: 1
# Processed by: cddbd v1.5.2PL0 Copyright (c) Steve Scherf et al.
# Submitted via: ExactAudioCopyFreeDBPlugin 1.0
#
DISCID=7d0a100b
DTITLE=葉蒨文 - 蒨意
DYEAR=1997
DGENRE=
TTITLE0=麻煩女人
TTITLE1=活過
TTITLE2=蒨意
TTITLE3=紫色
TTITLE4=娛樂自己
TTITLE5=男與女
TTITLE6=自強不息
TTITLE7=難得是今晚
TTITLE8=小宇宙
TTITLE9=幸運兒
TTITLE10=感謝
EXTD=
EXTT0=
EXTT1=
EXTT2=
EXTT3=
EXTT4=
EXTT5=
EXTT6=
EXTT7=
EXTT8=
EXTT9=
EXTT10=
PLAYORDER=
